# File generated by FabConvert.com - Free Image and 3D model conversion tools

o obj1
v 0.001 0.00040233 -0.00498379
v 0.001 0 -0.005
v 0 0 -0.005
v 0 -0.00040233 -0.00498379
v 0.001 -0.00040233 -0.00498379
v 0.001 -0.00119658 -0.00485471
v 0 -0.00119658 -0.00485471
v 0.001 -0.00195983 -0.0045999
v 0 -0.00195983 -0.0045999
v 0.001 -0.00267233 -0.00422595
v 0 -0.00267233 -0.00422595
v 0.001 -0.00331561 -0.00374255
v 0 -0.00331561 -0.00374255
v 0.001 -0.00387302 -0.00316223
v 0 -0.00387302 -0.00316223
v 0.001 -0.00433013 -0.0025
v 0 -0.00433013 -0.0025
v 0.001 -0.00467508 -0.00177302
v 0 -0.00467508 -0.00177302
v 0.001 -0.00489895 -0.00100013
v 0 -0.00489895 -0.00100013
v 0.001 -0.00499594 -0.00020133
v 0 -0.00499594 -0.00020133
v 0.001 -0.00496354 0.00060268
v 0 -0.00496354 0.00060268
v 0.001 -0.00480259 0.00139109
v 0 -0.00480259 0.00139109
v 0.001 -0.00451725 0.00214346
v 0 -0.00451725 0.00214346
v 0.001 -0.00411492 0.00284032
v 0 -0.00411492 0.00284032
v 0.001 -0.00360601 0.00346362
v 0 -0.00360601 0.00346362
v 0.001 -0.00300371 0.00399721
v 0 -0.00300371 0.00399721
v 0.001 -0.00232362 0.00442728
v 0 -0.00232362 0.00442728
v 0.001 -0.00158334 0.00474268
v 0 -0.00158334 0.00474268
v 0.001 -0.00080206 0.00493525
v 0 -0.00080206 0.00493525
v 0.001 -0 0.005
v 0 -0 0.005
v 0.001 0.00080206 0.00493525
v 0 0.00080206 0.00493525
v 0.001 0.00158334 0.00474268
v 0 0.00158334 0.00474268
v 0.001 0.00232362 0.00442728
v 0 0.00232362 0.00442728
v 0.001 0.00300371 0.00399721
v 0 0.00300371 0.00399721
v 0.001 0.00360601 0.00346362
v -0 0.00360601 0.00346362
v 0.001 0.00411492 0.00284032
v 0 0.00411492 0.00284032
v 0.001 0.00451725 0.00214346
v 0 0.00451725 0.00214346
v 0.001 0.00480259 0.00139109
v -0 0.00480259 0.00139109
v 0.001 0.00496354 0.00060268
v -0 0.00496354 0.00060268
v 0.001 0.00499594 -0.00020133
v -0 0.00499594 -0.00020133
v 0.001 0.00489895 -0.00100013
v 0 0.00489895 -0.00100013
v 0.001 0.00467508 -0.00177302
v -0 0.00467508 -0.00177302
v 0.001 0.00433013 -0.0025
v -0 0.00433013 -0.0025
v 0.001 0.00387302 -0.00316223
v -0 0.00387302 -0.00316223
v 0.001 0.00331561 -0.00374255
v 0 0.00331561 -0.00374255
v 0.001 0.00267233 -0.00422595
v -0 0.00267233 -0.00422595
v 0.001 0.00195983 -0.0045999
v 0 0.00195983 -0.0045999
v 0.001 0.00119658 -0.00485471
v 0 0.00119658 -0.00485471
v -0 0.00040233 -0.00498379
v 0.001 0 0
v 0 0 0
vn -0 0.04027 -0.99919
vn -0 -0.04027 -0.99919
vn -0 -0.04027 -0.99919
vn -0 -0.16041 -0.98705
vn 0 -0.31667 -0.94854
vn 0 -0.46472 -0.88546
vn 0 -0.60074 -0.79944
vn 0 -0.7212 -0.69272
vn 0 -0.82298 -0.56806
vn 0 -0.90345 -0.42869
vn 0 -0.96052 -0.27822
vn 0 -0.99271 -0.12054
vn 0 -0.99919 0.04027
vn 0 -0.97979 0.20003
vn 0 -0.93502 0.35461
vn 0 -0.86603 0.5
vn 0 -0.7746 0.63245
vn 0 -0.66312 0.74851
vn 0 -0.53447 0.84519
vn 0 -0.39197 0.91998
vn 0 -0.23932 0.97094
vn 0 -0.08047 0.99676
vn 0 0.08047 0.99676
vn -0 0.23932 0.97094
vn -0 0.39197 0.91998
vn -0 0.53447 0.84519
vn -0 0.66312 0.74851
vn -0 0.7746 0.63245
vn -0 0.86603 0.5
vn -0 0.93502 0.35461
vn -0 0.97979 0.20003
vn -0 0.99919 0.04027
vn -0 0.99271 -0.12054
vn -0 0.96052 -0.27822
vn -0 0.90345 -0.42869
vn -0 0.82298 -0.56806
vn -0 0.7212 -0.69272
vn -0 0.60074 -0.79944
vn -0 0.46472 -0.88546
vn -0 0.31667 -0.94854
vn -0 0.16041 -0.98705
vn -0 0.04027 -0.99919
vn 1 0 -0
vn 1 0 -0
vn -1 -0 0
vn -1 -0 0
f 1//1 2//1 3//1
f 3//2 2//2 4//2
f 2//3 5//3 4//3
f 4//4 5//4 6//4
f 4//4 6//4 7//4
f 7//5 6//5 8//5
f 7//5 8//5 9//5
f 9//6 8//6 10//6
f 9//6 10//6 11//6
f 11//7 10//7 12//7
f 11//7 12//7 13//7
f 13//8 12//8 14//8
f 13//8 14//8 15//8
f 15//9 14//9 16//9
f 15//9 16//9 17//9
f 17//10 16//10 18//10
f 17//10 18//10 19//10
f 19//11 18//11 20//11
f 19//11 20//11 21//11
f 21//12 20//12 22//12
f 21//12 22//12 23//12
f 23//13 22//13 24//13
f 23//13 24//13 25//13
f 25//14 24//14 26//14
f 25//14 26//14 27//14
f 27//15 26//15 28//15
f 27//15 28//15 29//15
f 29//16 28//16 30//16
f 29//16 30//16 31//16
f 31//17 30//17 32//17
f 31//17 32//17 33//17
f 33//18 32//18 34//18
f 33//18 34//18 35//18
f 35//19 34//19 36//19
f 35//19 36//19 37//19
f 37//20 36//20 38//20
f 37//20 38//20 39//20
f 39//21 38//21 40//21
f 39//21 40//21 41//21
f 41//22 40//22 42//22
f 41//22 42//22 43//22
f 43//23 42//23 44//23
f 43//23 44//23 45//23
f 45//24 44//24 46//24
f 45//24 46//24 47//24
f 47//25 46//25 48//25
f 47//25 48//25 49//25
f 49//26 48//26 50//26
f 49//26 50//26 51//26
f 51//27 50//27 52//27
f 51//27 52//27 53//27
f 53//28 52//28 54//28
f 53//28 54//28 55//28
f 55//29 54//29 56//29
f 55//29 56//29 57//29
f 57//30 56//30 58//30
f 57//30 58//30 59//30
f 59//31 58//31 60//31
f 59//31 60//31 61//31
f 61//32 60//32 62//32
f 61//32 62//32 63//32
f 63//33 62//33 64//33
f 63//33 64//33 65//33
f 65//34 64//34 66//34
f 65//34 66//34 67//34
f 67//35 66//35 68//35
f 67//35 68//35 69//35
f 69//36 68//36 70//36
f 69//36 70//36 71//36
f 71//37 70//37 72//37
f 71//37 72//37 73//37
f 73//38 72//38 74//38
f 73//38 74//38 75//38
f 75//39 74//39 76//39
f 75//39 76//39 77//39
f 77//40 76//40 78//40
f 77//40 78//40 79//40
f 79//41 78//41 1//41
f 79//41 1//41 80//41
f 80//42 1//42 3//42
f 2//43 1//43 81//43
f 8//43 6//43 81//43
f 81//44 6//44 5//44
f 81//43 5//43 2//43
f 14//43 12//43 81//43
f 81//43 12//43 10//43
f 81//43 10//43 8//43
f 20//43 18//43 81//43
f 81//43 18//43 16//43
f 81//43 16//43 14//43
f 26//43 24//43 81//43
f 81//44 24//44 22//44
f 81//43 22//43 20//43
f 32//43 30//43 81//43
f 81//43 30//43 28//43
f 81//43 28//43 26//43
f 38//43 36//43 81//43
f 81//43 36//43 34//43
f 81//43 34//43 32//43
f 44//43 42//43 81//43
f 81//43 42//43 40//43
f 81//43 40//43 38//43
f 50//43 48//43 81//43
f 81//43 48//43 46//43
f 81//43 46//43 44//43
f 56//43 54//43 81//43
f 81//43 54//43 52//43
f 81//43 52//43 50//43
f 62//44 60//44 81//44
f 81//43 60//43 58//43
f 81//43 58//43 56//43
f 68//43 66//43 81//43
f 81//43 66//43 64//43
f 81//43 64//43 62//43
f 74//43 72//43 81//43
f 81//43 72//43 70//43
f 81//43 70//43 68//43
f 1//44 78//44 81//44
f 81//43 78//43 76//43
f 81//43 76//43 74//43
f 3//45 4//45 82//45
f 77//45 79//45 82//45
f 82//46 79//46 80//46
f 82//45 80//45 3//45
f 71//45 73//45 82//45
f 82//45 73//45 75//45
f 82//45 75//45 77//45
f 65//45 67//45 82//45
f 82//45 67//45 69//45
f 82//45 69//45 71//45
f 59//45 61//45 82//45
f 82//46 61//46 63//46
f 82//45 63//45 65//45
f 53//45 55//45 82//45
f 82//45 55//45 57//45
f 82//45 57//45 59//45
f 47//45 49//45 82//45
f 82//45 49//45 51//45
f 82//45 51//45 53//45
f 41//45 43//45 82//45
f 82//45 43//45 45//45
f 82//45 45//45 47//45
f 35//45 37//45 82//45
f 82//45 37//45 39//45
f 82//45 39//45 41//45
f 29//45 31//45 82//45
f 82//45 31//45 33//45
f 82//45 33//45 35//45
f 23//46 25//46 82//46
f 82//45 25//45 27//45
f 82//45 27//45 29//45
f 17//45 19//45 82//45
f 82//45 19//45 21//45
f 82//45 21//45 23//45
f 11//45 13//45 82//45
f 82//45 13//45 15//45
f 82//45 15//45 17//45
f 4//46 7//46 82//46
f 82//45 7//45 9//45
f 82//45 9//45 11//45
# Vertices: 82, normals: 46, texture coordinates: 0, faces: 160

