# File generated by FabConvert.com - Free Image and 3D model conversion tools

o obj1
v 0.001 0.00040233 -0.00498379
v 0.001 0 -0.005
v 0 0 -0.005
v 0 -0.00040233 -0.00498379
v 0.001 -0.00040233 -0.00498379
v 0.001 -0.00119658 -0.00485471
v 0 -0.00119658 -0.00485471
v 0.001 -0.00195983 -0.0045999
v 0 -0.00195983 -0.0045999
v 0.001 -0.00267233 -0.00422595
v 0 -0.00267233 -0.00422595
v 0.001 -0.00331561 -0.00374255
v 0 -0.00331561 -0.00374255
v 0.001 -0.00387302 -0.00316223
v 0 -0.00387302 -0.00316223
v 0.001 -0.00433013 -0.0025
v 0 -0.00433013 -0.0025
v 0.001 -0.00467508 -0.00177302
v 0 -0.00467508 -0.00177302
v 0.001 -0.00489895 -0.00100013
v 0 -0.00489895 -0.00100013
v 0.001 -0.00499594 -0.00020133
v 0 -0.00499594 -0.00020133
v 0.001 -0.00496354 0.00060268
v 0 -0.00496354 0.00060268
v 0.001 -0.00480259 0.00139109
v 0 -0.00480259 0.00139109
v 0.001 -0.00451725 0.00214346
v 0 -0.00451725 0.00214346
v 0.001 -0.00411492 0.00284032
v 0 -0.00411492 0.00284032
v 0.001 -0.00360601 0.00346362
v 0 -0.00360601 0.00346362
v 0.001 -0.00300371 0.00399721
v 0 -0.00300371 0.00399721
v 0.001 -0.00232362 0.00442728
v 0 -0.00232362 0.00442728
v 0.001 -0.00158334 0.00474268
v 0 -0.00158334 0.00474268
v 0.001 -0.00080206 0.00493525
v 0 -0.00080206 0.00493525
v 0.001 -0 0.005
v -0 -0 0.005
v 0.001 0.00080206 0.00493525
v 0 0.00080206 0.00493525
v 0.001 0.00158334 0.00474268
v -0 0.00158334 0.00474268
v 0.001 0.00232362 0.00442728
v -0 0.00232362 0.00442728
v 0.001 0.00300371 0.00399721
v -0 0.00300371 0.00399721
v 0.001 0.00360601 0.00346362
v -0 0.00360601 0.00346362
v 0.001 0.00411492 0.00284032
v -0 0.00411492 0.00284032
v 0.001 0.00451725 0.00214346
v -0 0.00451725 0.00214346
v 0.001 0.00480259 0.00139109
v -0 0.00480259 0.00139109
v 0.001 0.00496354 0.00060268
v -0 0.00496354 0.00060268
v 0.001 0.00499594 -0.00020133
v -0 0.00499594 -0.00020133
v 0.001 0.00489895 -0.00100013
v -0 0.00489895 -0.00100013
v 0.001 0.00467508 -0.00177302
v -0 0.00467508 -0.00177302
v 0.001 0.00433013 -0.0025
v -0 0.00433013 -0.0025
v 0.001 0.00387302 -0.00316223
v -0 0.00387302 -0.00316223
v 0.001 0.00331561 -0.00374255
v -0 0.00331561 -0.00374255
v 0.001 0.00267233 -0.00422595
v -0 0.00267233 -0.00422595
v 0.001 0.00195983 -0.0045999
v 0 0.00195983 -0.0045999
v 0.001 0.00119658 -0.00485471
v 0 0.00119658 -0.00485471
v 0 0.00040233 -0.00498379
v 0.001 0 0
v 0 0 0
vn 0 0.04027 -0.99919
vn 0 -0.04027 -0.99919
vn 0 -0.16041 -0.98705
vn 0 -0.31667 -0.94854
vn 0 -0.46472 -0.88546
vn 0 -0.60074 -0.79944
vn 0 -0.7212 -0.69272
vn 0 -0.82298 -0.56806
vn 0 -0.90345 -0.42869
vn 0 -0.96052 -0.27822
vn 0 -0.99271 -0.12054
vn 0 -0.99919 0.04027
vn 0 -0.97979 0.20003
vn 0 -0.93502 0.35461
vn 0 -0.86603 0.5
vn 0 -0.7746 0.63245
vn 0 -0.66312 0.74851
vn 0 -0.53447 0.84519
vn 0 -0.39197 0.91998
vn 0 -0.23932 0.97094
vn -0 -0.08047 0.99676
vn -0 0.08047 0.99676
vn -0 0.23932 0.97094
vn -0 0.39197 0.91998
vn -0 0.53447 0.84519
vn -0 0.66312 0.74851
vn -0 0.7746 0.63245
vn -0 0.86603 0.5
vn -0 0.93502 0.35461
vn -0 0.97979 0.20003
vn -0 0.99919 0.04027
vn -0 0.99271 -0.12054
vn -0 0.96052 -0.27822
vn -0 0.90345 -0.42869
vn -0 0.82298 -0.56806
vn -0 0.7212 -0.69272
vn -0 0.60074 -0.79944
vn -0 0.46472 -0.88546
vn -0 0.31667 -0.94854
vn 0 0.16041 -0.98705
vn 0 0.04027 -0.99919
vn 1 0 0
vn 1 0 0
vn -1 -0 -0
vn -1 -0 -0
f 1//1 2//1 3//1
f 3//2 2//2 4//2
f 2//2 5//2 4//2
f 4//3 5//3 6//3
f 4//3 6//3 7//3
f 7//4 6//4 8//4
f 7//4 8//4 9//4
f 9//5 8//5 10//5
f 9//5 10//5 11//5
f 11//6 10//6 12//6
f 11//6 12//6 13//6
f 13//7 12//7 14//7
f 13//7 14//7 15//7
f 15//8 14//8 16//8
f 15//8 16//8 17//8
f 17//9 16//9 18//9
f 17//9 18//9 19//9
f 19//10 18//10 20//10
f 19//10 20//10 21//10
f 21//11 20//11 22//11
f 21//11 22//11 23//11
f 23//12 22//12 24//12
f 23//12 24//12 25//12
f 25//13 24//13 26//13
f 25//13 26//13 27//13
f 27//14 26//14 28//14
f 27//14 28//14 29//14
f 29//15 28//15 30//15
f 29//15 30//15 31//15
f 31//16 30//16 32//16
f 31//16 32//16 33//16
f 33//17 32//17 34//17
f 33//17 34//17 35//17
f 35//18 34//18 36//18
f 35//18 36//18 37//18
f 37//19 36//19 38//19
f 37//19 38//19 39//19
f 39//20 38//20 40//20
f 39//20 40//20 41//20
f 41//21 40//21 42//21
f 41//21 42//21 43//21
f 43//22 42//22 44//22
f 43//22 44//22 45//22
f 45//23 44//23 46//23
f 45//23 46//23 47//23
f 47//24 46//24 48//24
f 47//24 48//24 49//24
f 49//25 48//25 50//25
f 49//25 50//25 51//25
f 51//26 50//26 52//26
f 51//26 52//26 53//26
f 53//27 52//27 54//27
f 53//27 54//27 55//27
f 55//28 54//28 56//28
f 55//28 56//28 57//28
f 57//29 56//29 58//29
f 57//29 58//29 59//29
f 59//30 58//30 60//30
f 59//30 60//30 61//30
f 61//31 60//31 62//31
f 61//31 62//31 63//31
f 63//32 62//32 64//32
f 63//32 64//32 65//32
f 65//33 64//33 66//33
f 65//33 66//33 67//33
f 67//34 66//34 68//34
f 67//34 68//34 69//34
f 69//35 68//35 70//35
f 69//35 70//35 71//35
f 71//36 70//36 72//36
f 71//36 72//36 73//36
f 73//37 72//37 74//37
f 73//37 74//37 75//37
f 75//38 74//38 76//38
f 75//38 76//38 77//38
f 77//39 76//39 78//39
f 77//39 78//39 79//39
f 79//40 78//40 1//40
f 79//40 1//40 80//40
f 80//41 1//41 3//41
f 2//42 1//42 81//42
f 8//42 6//42 81//42
f 81//43 6//43 5//43
f 81//42 5//42 2//42
f 14//42 12//42 81//42
f 81//42 12//42 10//42
f 81//42 10//42 8//42
f 20//42 18//42 81//42
f 81//42 18//42 16//42
f 81//42 16//42 14//42
f 26//42 24//42 81//42
f 81//43 24//43 22//43
f 81//42 22//42 20//42
f 32//42 30//42 81//42
f 81//42 30//42 28//42
f 81//42 28//42 26//42
f 38//42 36//42 81//42
f 81//42 36//42 34//42
f 81//42 34//42 32//42
f 44//42 42//42 81//42
f 81//42 42//42 40//42
f 81//42 40//42 38//42
f 50//42 48//42 81//42
f 81//42 48//42 46//42
f 81//42 46//42 44//42
f 56//42 54//42 81//42
f 81//42 54//42 52//42
f 81//42 52//42 50//42
f 62//43 60//43 81//43
f 81//42 60//42 58//42
f 81//42 58//42 56//42
f 68//42 66//42 81//42
f 81//42 66//42 64//42
f 81//42 64//42 62//42
f 74//42 72//42 81//42
f 81//42 72//42 70//42
f 81//42 70//42 68//42
f 1//43 78//43 81//43
f 81//42 78//42 76//42
f 81//42 76//42 74//42
f 3//44 4//44 82//44
f 77//44 79//44 82//44
f 82//45 79//45 80//45
f 82//44 80//44 3//44
f 71//44 73//44 82//44
f 82//44 73//44 75//44
f 82//44 75//44 77//44
f 65//44 67//44 82//44
f 82//44 67//44 69//44
f 82//44 69//44 71//44
f 59//44 61//44 82//44
f 82//45 61//45 63//45
f 82//44 63//44 65//44
f 53//44 55//44 82//44
f 82//44 55//44 57//44
f 82//44 57//44 59//44
f 47//44 49//44 82//44
f 82//44 49//44 51//44
f 82//44 51//44 53//44
f 41//44 43//44 82//44
f 82//44 43//44 45//44
f 82//44 45//44 47//44
f 35//44 37//44 82//44
f 82//44 37//44 39//44
f 82//44 39//44 41//44
f 29//44 31//44 82//44
f 82//44 31//44 33//44
f 82//44 33//44 35//44
f 23//45 25//45 82//45
f 82//44 25//44 27//44
f 82//44 27//44 29//44
f 17//44 19//44 82//44
f 82//44 19//44 21//44
f 82//44 21//44 23//44
f 11//44 13//44 82//44
f 82//44 13//44 15//44
f 82//44 15//44 17//44
f 4//45 7//45 82//45
f 82//44 7//44 9//44
f 82//44 9//44 11//44
# Vertices: 82, normals: 45, texture coordinates: 0, faces: 160

