# File generated by FabConvert.com - Free Image and 3D model conversion tools

o obj1
v 0.03305089 -0.017 0.01427019
v 0.03025133 0.017 0.01951556
v 0.03025133 -0.017 0.01951556
v 0.02662659 0.017 0.0242286
v 0.02662659 -0.017 0.0242286
v 0.02227554 0.017 0.02828074
v 0.02227554 -0.017 0.02828074
v 0.01731687 0.017 0.03156146
v 0.01731687 -0.017 0.03156146
v 0.01188585 0.017 0.03398127
v 0.01188585 -0.017 0.03398127
v 0.00613061 0.017 0.03547416
v 0.00613061 -0.017 0.03547416
v 0.00020814 0.017 0.0359994
v 0.00020814 -0.017 0.0359994
v -0.00572001 0.017 0.03554267
v -0.00572001 -0.017 0.03554267
v -0.01149213 0.017 0.03411643
v -0.01149213 -0.017 0.03411643
v -0.01695077 0.017 0.03175959
v -0.01695077 -0.017 0.03175959
v -0.02194704 0.017 0.02853642
v -0.02194704 -0.017 0.02853642
v -0.02634465 0.017 0.02453486
v -0.02634465 -0.017 0.02453486
v -0.03002365 0.017 0.01986405
v -0.03002365 -0.017 0.01986405
v -0.03288368 0.017 0.0146514
v -0.03288368 -0.017 0.0146514
v -0.03484673 0.017 0.0090391
v -0.03484673 -0.017 0.0090391
v -0.03585925 0.017 0.00318023
v -0.03585925 -0.017 0.00318023
v -0.03589363 0.017 -0.00276538
v -0.03589363 -0.017 -0.00276538
v -0.03494892 0.017 -0.00863556
v -0.03494892 -0.017 -0.00863556
v -0.03305089 0.017 -0.01427019
v -0.03305089 -0.017 -0.01427019
v -0.03025133 0.017 -0.01951556
v -0.03025133 -0.017 -0.01951556
v -0.02662659 0.017 -0.0242286
v -0.02662659 -0.017 -0.0242286
v -0.02227554 0.017 -0.02828074
v -0.02227554 -0.017 -0.02828074
v -0.01731687 0.017 -0.03156146
v -0.01731687 -0.017 -0.03156146
v -0.01188585 0.017 -0.03398127
v -0.01188585 -0.017 -0.03398127
v -0.00613061 0.017 -0.03547416
v -0.00613061 -0.017 -0.03547416
v -0.00020814 0.017 -0.0359994
v -0.00020814 -0.017 -0.0359994
v 0.00572001 0.017 -0.03554267
v 0.00572001 -0.017 -0.03554267
v 0.01149213 0.017 -0.03411643
v 0.01149213 -0.017 -0.03411643
v 0.01695077 0.017 -0.03175959
v 0.01695077 -0.017 -0.03175959
v 0.02194704 0.017 -0.02853642
v 0.02194704 -0.017 -0.02853642
v 0.02634465 0.017 -0.02453486
v 0.02634465 -0.017 -0.02453486
v 0.03002365 0.017 -0.01986405
v 0.03002365 -0.017 -0.01986405
v 0.03288368 0.017 -0.0146514
v 0.03288368 -0.017 -0.0146514
v 0.03484673 0.017 -0.0090391
v 0.03484673 -0.017 -0.0090391
v 0.03585925 0.017 -0.00318023
v 0.03585925 -0.017 -0.00318023
v 0.03589363 0.017 0.00276538
v 0.03589363 -0.017 0.00276538
v 0.03494892 0.017 0.00863556
v 0.03494892 -0.017 0.00863556
v 0.03305089 0.017 0.01427019
v 0.00860324 0.017 -0.00509748
v 0.00660696 0.017 -0.00750654
v 0.00396394 0.017 -0.0091808
v -0.00995639 0.017 -0.00093291
v -0.0091808 0.017 -0.00396394
v -0.00750654 0.017 -0.00660696
v 0.00975737 0.017 -0.00218945
v -0.00860324 0.017 0.00509748
v -0.00975737 0.017 0.00218945
v -0.00509748 0.017 -0.00860324
v 0.00093291 0.017 -0.00995639
v 0.00995639 0.017 0.00093291
v 0.0091808 0.017 0.00396394
v -0.00218945 0.017 -0.00975737
v 0.00750654 0.017 0.00660696
v 0.00218945 0.017 0.00975737
v -0.00093291 0.017 0.00995639
v 0.00509748 0.017 0.00860324
v -0.00396394 0.017 0.0091808
v -0.00660696 0.017 0.00750654
v 0.00093291 -0.017 -0.00995639
v 0.00396394 -0.017 -0.0091808
v 0.00660696 -0.017 -0.00750654
v -0.00218945 -0.017 -0.00975737
v -0.00509748 -0.017 -0.00860324
v -0.00750654 -0.017 -0.00660696
v -0.00093291 -0.017 0.00995639
v 0.00218945 -0.017 0.00975737
v 0.0091808 -0.017 0.00396394
v 0.00995639 -0.017 0.00093291
v 0.00975737 -0.017 -0.00218945
v 0.00860324 -0.017 -0.00509748
v -0.00860324 -0.017 0.00509748
v -0.00660696 -0.017 0.00750654
v -0.00396394 -0.017 0.0091808
v 0.00509748 -0.017 0.00860324
v -0.0091808 -0.017 -0.00396394
v 0.00750654 -0.017 0.00660696
v -0.00995639 -0.017 -0.00093291
v -0.00975737 -0.017 0.00218945
vn 0.88221 0 0.47085
vn 0.79268 0 0.60964
vn 0.68152 -0 0.7318
vn 0.55178 -0 0.83399
vn 0.40698 -0 0.91344
vn 0.25109 -0 0.96796
vn 0.08834 -0 0.99609
vn -0.07682 -0 0.99705
vn -0.23988 -0 0.9708
vn -0.39639 -0 0.91808
vn -0.5421 -0 0.84031
vn -0.67302 -0 0.73963
vn -0.78558 -0 0.61876
vn -0.87671 -0 0.48102
vn -0.94392 -0 0.33016
vn -0.98539 -0 0.17029
vn -0.99998 -0 0.00578
vn -0.9873 -0 -0.15889
vn -0.94768 -0 -0.31923
vn -0.88221 -0 -0.47085
vn -0.79268 -0 -0.60964
vn -0.68152 0 -0.7318
vn -0.55178 0 -0.83399
vn -0.40698 0 -0.91344
vn -0.25109 0 -0.96796
vn -0.08834 0 -0.99609
vn 0.07682 0 -0.99705
vn 0.23988 0 -0.9708
vn 0.39639 0 -0.91808
vn 0.5421 0 -0.84031
vn 0.67302 0 -0.73963
vn 0.78558 0 -0.61876
vn 0.87671 0 -0.48102
vn 0.94392 0 -0.33016
vn 0.98539 0 -0.17029
vn 0.99998 0 -0.00578
vn 0.9873 0 0.15889
vn 0.94768 0 0.31923
vn -0 1 0
vn 0 -1 -0
vn -0.24789 -0 0.96879
vn 0.06361 -0 0.99797
vn 0.36889 -0 0.92947
vn 0.63806 -0 0.76999
vn 0.84477 0 0.53513
vn 0.84477 0 0.53513
vn 0.96879 0 0.24789
vn 0.96879 0 0.24789
vn 0.99797 0 -0.06361
vn 0.92947 0 -0.36889
vn 0.76999 0 -0.63806
vn 0.53513 0 -0.84477
vn 0.24789 0 -0.96879
vn -0.06361 0 -0.99797
vn -0.36889 0 -0.92947
vn -0.63806 0 -0.76999
vn -0.84477 -0 -0.53513
vn -0.84477 -0 -0.53513
vn -0.96879 -0 -0.24789
vn -0.96879 -0 -0.24789
vn -0.99797 -0 0.06361
vn -0.92947 -0 0.36889
vn -0.76999 -0 0.63806
vn -0.53513 -0 0.84477
f 1//1 2//1 3//1
f 3//2 2//2 4//2
f 3//2 4//2 5//2
f 5//3 4//3 6//3
f 5//3 6//3 7//3
f 7//4 6//4 8//4
f 7//4 8//4 9//4
f 9//5 8//5 10//5
f 9//5 10//5 11//5
f 11//6 10//6 12//6
f 11//6 12//6 13//6
f 13//7 12//7 14//7
f 13//7 14//7 15//7
f 15//8 14//8 16//8
f 15//8 16//8 17//8
f 17//9 16//9 18//9
f 17//9 18//9 19//9
f 19//10 18//10 20//10
f 19//10 20//10 21//10
f 21//11 20//11 22//11
f 21//11 22//11 23//11
f 23//12 22//12 24//12
f 23//12 24//12 25//12
f 25//13 24//13 26//13
f 25//13 26//13 27//13
f 27//14 26//14 28//14
f 27//14 28//14 29//14
f 29//15 28//15 30//15
f 29//15 30//15 31//15
f 31//16 30//16 32//16
f 31//16 32//16 33//16
f 33//17 32//17 34//17
f 33//17 34//17 35//17
f 35//18 34//18 36//18
f 35//18 36//18 37//18
f 37//19 36//19 38//19
f 37//19 38//19 39//19
f 39//20 38//20 40//20
f 39//20 40//20 41//20
f 41//21 40//21 42//21
f 41//21 42//21 43//21
f 43//22 42//22 44//22
f 43//22 44//22 45//22
f 45//23 44//23 46//23
f 45//23 46//23 47//23
f 47//24 46//24 48//24
f 47//24 48//24 49//24
f 49//25 48//25 50//25
f 49//25 50//25 51//25
f 51//26 50//26 52//26
f 51//26 52//26 53//26
f 53//27 52//27 54//27
f 53//27 54//27 55//27
f 55//28 54//28 56//28
f 55//28 56//28 57//28
f 57//29 56//29 58//29
f 57//29 58//29 59//29
f 59//30 58//30 60//30
f 59//30 60//30 61//30
f 61//31 60//31 62//31
f 61//31 62//31 63//31
f 63//32 62//32 64//32
f 63//32 64//32 65//32
f 65//33 64//33 66//33
f 65//33 66//33 67//33
f 67//34 66//34 68//34
f 67//34 68//34 69//34
f 69//35 68//35 70//35
f 69//35 70//35 71//35
f 71//36 70//36 72//36
f 71//36 72//36 73//36
f 73//37 72//37 74//37
f 73//37 74//37 75//37
f 75//38 74//38 76//38
f 75//38 76//38 1//38
f 1//1 76//1 2//1
f 77//39 62//39 78//39
f 78//39 62//39 60//39
f 78//39 60//39 79//39
f 36//39 80//39 81//39
f 82//39 40//39 81//39
f 81//39 40//39 38//39
f 81//39 38//39 36//39
f 83//39 66//39 77//39
f 77//39 66//39 64//39
f 77//39 64//39 62//39
f 28//39 84//39 85//39
f 36//39 34//39 80//39
f 80//39 34//39 32//39
f 80//39 32//39 85//39
f 85//39 32//39 30//39
f 85//39 30//39 28//39
f 86//39 44//39 82//39
f 82//39 44//39 42//39
f 82//39 42//39 40//39
f 60//39 58//39 79//39
f 79//39 58//39 56//39
f 79//39 56//39 87//39
f 88//39 70//39 83//39
f 83//39 70//39 68//39
f 83//39 68//39 66//39
f 89//39 74//39 88//39
f 88//39 74//39 72//39
f 88//39 72//39 70//39
f 90//39 48//39 86//39
f 86//39 48//39 46//39
f 86//39 46//39 44//39
f 56//39 54//39 87//39
f 87//39 54//39 52//39
f 87//39 52//39 90//39
f 90//39 52//39 50//39
f 90//39 50//39 48//39
f 91//39 2//39 89//39
f 89//39 2//39 76//39
f 89//39 76//39 74//39
f 92//39 93//39 14//39
f 94//39 6//39 91//39
f 91//39 6//39 4//39
f 91//39 4//39 2//39
f 14//39 12//39 92//39
f 92//39 12//39 10//39
f 92//39 10//39 94//39
f 94//39 10//39 8//39
f 94//39 8//39 6//39
f 95//39 18//39 93//39
f 93//39 18//39 16//39
f 93//39 16//39 14//39
f 28//39 26//39 84//39
f 84//39 26//39 24//39
f 84//39 24//39 96//39
f 96//39 24//39 22//39
f 96//39 22//39 95//39
f 95//39 22//39 20//39
f 95//39 20//39 18//39
f 97//40 57//40 98//40
f 98//40 57//40 59//40
f 98//40 59//40 99//40
f 100//40 53//40 97//40
f 97//40 53//40 55//40
f 97//40 55//40 57//40
f 101//40 49//40 100//40
f 100//40 49//40 51//40
f 100//40 51//40 53//40
f 102//40 45//40 101//40
f 101//40 45//40 47//40
f 101//40 47//40 49//40
f 15//40 103//40 104//40
f 105//40 106//40 75//40
f 107//40 71//40 106//40
f 106//40 71//40 73//40
f 106//40 73//40 75//40
f 108//40 67//40 107//40
f 107//40 67//40 69//40
f 107//40 69//40 71//40
f 59//40 61//40 99//40
f 99//40 61//40 63//40
f 99//40 63//40 108//40
f 108//40 63//40 65//40
f 108//40 65//40 67//40
f 109//40 110//40 25//40
f 15//40 17//40 103//40
f 103//40 17//40 19//40
f 103//40 19//40 111//40
f 111//40 19//40 21//40
f 111//40 21//40 110//40
f 110//40 21//40 23//40
f 110//40 23//40 25//40
f 112//40 11//40 104//40
f 104//40 11//40 13//40
f 104//40 13//40 15//40
f 113//40 41//40 102//40
f 102//40 41//40 43//40
f 102//40 43//40 45//40
f 114//40 7//40 112//40
f 112//40 7//40 9//40
f 112//40 9//40 11//40
f 75//40 1//40 105//40
f 105//40 1//40 3//40
f 105//40 3//40 114//40
f 114//40 3//40 5//40
f 114//40 5//40 7//40
f 115//40 37//40 113//40
f 113//40 37//40 39//40
f 113//40 39//40 41//40
f 116//40 33//40 115//40
f 115//40 33//40 35//40
f 115//40 35//40 37//40
f 25//40 27//40 109//40
f 109//40 27//40 29//40
f 109//40 29//40 116//40
f 116//40 29//40 31//40
f 116//40 31//40 33//40
f 98//41 79//41 97//41
f 97//41 79//41 87//41
f 97//42 87//42 100//42
f 100//42 87//42 90//42
f 100//43 90//43 101//43
f 101//43 90//43 86//43
f 101//44 86//44 102//44
f 102//44 86//44 82//44
f 102//45 82//45 113//45
f 113//46 82//46 81//46
f 113//47 81//47 115//47
f 115//48 81//48 80//48
f 115//49 80//49 116//49
f 116//49 80//49 85//49
f 116//50 85//50 109//50
f 109//50 85//50 84//50
f 109//51 84//51 110//51
f 110//51 84//51 96//51
f 110//52 96//52 111//52
f 111//52 96//52 95//52
f 111//53 95//53 103//53
f 103//53 95//53 93//53
f 103//54 93//54 104//54
f 104//54 93//54 92//54
f 104//55 92//55 112//55
f 112//55 92//55 94//55
f 112//56 94//56 114//56
f 114//56 94//56 91//56
f 114//57 91//57 105//57
f 105//58 91//58 89//58
f 105//59 89//59 106//59
f 106//60 89//60 88//60
f 106//61 88//61 107//61
f 107//61 88//61 83//61
f 107//62 83//62 108//62
f 108//62 83//62 77//62
f 108//63 77//63 99//63
f 99//63 77//63 78//63
f 99//64 78//64 98//64
f 98//64 78//64 79//64
# Vertices: 116, normals: 64, texture coordinates: 0, faces: 232

