# File generated by FabConvert.com - Free Image and 3D model conversion tools

o obj1
v -0.00051061 -0.017 -0.03599638
v 0.00542116 0.017 -0.03558948
v 0.00542116 -0.017 -0.03558948
v 0.01120506 0.017 -0.03421179
v 0.01120506 -0.017 -0.03421179
v 0.01668331 0.017 -0.0319009
v 0.01668331 -0.017 -0.0319009
v 0.02170649 0.017 -0.02871983
v 0.02170649 -0.017 -0.02871983
v 0.02613757 0.017 -0.02475535
v 0.02613757 -0.017 -0.02475535
v 0.02985568 0.017 -0.02011562
v 0.02985568 -0.017 -0.02011562
v 0.03275941 0.017 -0.01492719
v 0.03275941 -0.017 -0.01492719
v 0.03476955 0.017 -0.00933158
v 0.03476955 -0.017 -0.00933158
v 0.03583127 0.017 -0.00348143
v 0.03583127 -0.017 -0.00348143
v 0.0359156 0.017 0.00246369
v 0.0359156 -0.017 0.00246369
v 0.03502025 0.017 0.0083416
v 0.03502025 -0.017 0.0083416
v 0.03316963 0.017 0.01399197
v 0.03316963 -0.017 0.01399197
v 0.03041424 0.017 0.01926068
v 0.03041424 -0.017 0.01926068
v 0.02682923 0.017 0.02400401
v 0.02682923 -0.017 0.02400401
v 0.02251238 0.017 0.02809257
v 0.02251238 -0.017 0.02809257
v 0.01758145 0.017 0.03141484
v 0.01758145 -0.017 0.03141484
v 0.01217095 0.017 0.0338802
v 0.01217095 -0.017 0.0338802
v 0.00642846 0.017 0.03542139
v 0.00642846 -0.017 0.03542139
v 0.00051061 0.017 0.03599638
v 0.00051061 -0.017 0.03599638
v -0.00542116 0.017 0.03558948
v -0.00542116 -0.017 0.03558948
v -0.01120506 0.017 0.03421179
v -0.01120506 -0.017 0.03421179
v -0.01668331 0.017 0.0319009
v -0.01668331 -0.017 0.0319009
v -0.02170649 0.017 0.02871983
v -0.02170649 -0.017 0.02871983
v -0.02613757 0.017 0.02475535
v -0.02613757 -0.017 0.02475535
v -0.02985568 0.017 0.02011562
v -0.02985568 -0.017 0.02011562
v -0.03275941 0.017 0.01492719
v -0.03275941 -0.017 0.01492719
v -0.03476955 0.017 0.00933158
v -0.03476955 -0.017 0.00933158
v -0.03583127 0.017 0.00348143
v -0.03583127 -0.017 0.00348143
v -0.0359156 0.017 -0.00246369
v -0.0359156 -0.017 -0.00246369
v -0.03502025 0.017 -0.0083416
v -0.03502025 -0.017 -0.0083416
v -0.03316963 0.017 -0.01399197
v -0.03316963 -0.017 -0.01399197
v -0.03041424 0.017 -0.01926068
v -0.03041424 -0.017 -0.01926068
v -0.02682923 0.017 -0.02400401
v -0.02682923 -0.017 -0.02400401
v -0.02251238 0.017 -0.02809257
v -0.02251238 -0.017 -0.02809257
v -0.01758145 0.017 -0.03141484
v -0.01758145 -0.017 -0.03141484
v -0.01217095 0.017 -0.0338802
v -0.01217095 -0.017 -0.0338802
v -0.00642846 0.017 -0.03542139
v -0.00642846 -0.017 -0.03542139
v -0.00051061 0.017 -0.03599638
v -0.00817273 0.017 -0.00576251
v -0.00955344 0.017 -0.00295496
v -0.00999899 0.017 0.00014184
v 0.00322475 0.017 0.00946578
v 0.00014184 0.017 0.00999899
v -0.00295496 0.017 0.00955344
v -0.00599201 0.017 -0.00800599
v 0.00817273 0.017 0.00576251
v 0.00599201 0.017 0.00800599
v -0.00576251 0.017 0.00817273
v -0.00946578 0.017 0.00322475
v -0.00322475 0.017 -0.00946578
v -0.00014184 0.017 -0.00999899
v -0.00800599 0.017 0.00599201
v 0.00295496 0.017 -0.00955344
v 0.00800599 0.017 -0.00599201
v 0.00946578 0.017 -0.00322475
v 0.00576251 0.017 -0.00817273
v 0.00999899 0.017 -0.00014184
v 0.00955344 0.017 0.00295496
v -0.00946578 -0.017 0.00322475
v -0.00999899 -0.017 0.00014184
v -0.00955344 -0.017 -0.00295496
v -0.00800599 -0.017 0.00599201
v -0.00576251 -0.017 0.00817273
v -0.00295496 -0.017 0.00955344
v 0.00946578 -0.017 -0.00322475
v 0.00800599 -0.017 -0.00599201
v -0.00014184 -0.017 -0.00999899
v -0.00322475 -0.017 -0.00946578
v -0.00599201 -0.017 -0.00800599
v -0.00817273 -0.017 -0.00576251
v 0.00817273 -0.017 0.00576251
v 0.00955344 -0.017 0.00295496
v 0.00999899 -0.017 -0.00014184
v 0.00576251 -0.017 -0.00817273
v 0.00014184 -0.017 0.00999899
v 0.00295496 -0.017 -0.00955344
v 0.00322475 -0.017 0.00946578
v 0.00599201 -0.017 0.00800599
vn 0.06844 0 -0.99766
vn 0.23171 0 -0.97278
vn 0.38867 0 -0.92138
vn 0.53502 0 -0.84484
vn 0.66678 0 -0.74526
vn 0.78035 0 -0.62534
vn 0.87263 0 -0.48837
vn 0.94112 0 -0.33808
vn 0.98393 0 -0.17857
vn 0.9999 0 -0.01418
vn 0.9886 0 0.15059
vn 0.95033 0 0.31125
vn 0.88614 0 0.46343
vn 0.79777 0 0.60296
vn 0.68765 -0 0.72604
vn 0.55877 -0 0.82932
vn 0.41464 -0 0.90998
vn 0.25921 -0 0.96582
vn 0.09671 -0 0.99531
vn -0.06844 -0 0.99766
vn -0.23171 -0 0.97278
vn -0.38867 -0 0.92138
vn -0.53502 -0 0.84484
vn -0.66678 -0 0.74526
vn -0.78035 -0 0.62534
vn -0.87263 -0 0.48837
vn -0.94112 -0 0.33808
vn -0.98393 -0 0.17857
vn -0.9999 -0 0.01418
vn -0.9886 -0 -0.15059
vn -0.95033 -0 -0.31125
vn -0.88614 -0 -0.46343
vn -0.79777 -0 -0.60296
vn -0.68765 0 -0.72604
vn -0.55877 0 -0.82932
vn -0.41464 0 -0.90998
vn -0.25921 0 -0.96582
vn -0.09671 0 -0.99531
vn -0 1 0
vn 0 -1 -0
vn 0.98537 0 -0.17043
vn 0.88448 0 -0.46658
vn 0.69701 0 -0.71707
vn 0.44131 0 -0.89736
vn 0.14241 0 -0.98981
vn 0.14241 0 -0.98981
vn -0.17043 0 -0.98537
vn -0.17043 0 -0.98537
vn -0.46658 0 -0.88448
vn -0.71707 -0 -0.69701
vn -0.89736 -0 -0.44131
vn -0.98981 -0 -0.14241
vn -0.98537 -0 0.17043
vn -0.88448 -0 0.46658
vn -0.69701 -0 0.71707
vn -0.44131 -0 0.89736
vn -0.14241 -0 0.98981
vn -0.14241 -0 0.98981
vn 0.17043 -0 0.98537
vn 0.17043 -0 0.98537
vn 0.46658 -0 0.88448
vn 0.71707 0 0.69701
vn 0.89736 0 0.44131
vn 0.98981 0 0.14241
f 1//1 2//1 3//1
f 3//2 2//2 4//2
f 3//2 4//2 5//2
f 5//3 4//3 6//3
f 5//3 6//3 7//3
f 7//4 6//4 8//4
f 7//4 8//4 9//4
f 9//5 8//5 10//5
f 9//5 10//5 11//5
f 11//6 10//6 12//6
f 11//6 12//6 13//6
f 13//7 12//7 14//7
f 13//7 14//7 15//7
f 15//8 14//8 16//8
f 15//8 16//8 17//8
f 17//9 16//9 18//9
f 17//9 18//9 19//9
f 19//10 18//10 20//10
f 19//10 20//10 21//10
f 21//11 20//11 22//11
f 21//11 22//11 23//11
f 23//12 22//12 24//12
f 23//12 24//12 25//12
f 25//13 24//13 26//13
f 25//13 26//13 27//13
f 27//14 26//14 28//14
f 27//14 28//14 29//14
f 29//15 28//15 30//15
f 29//15 30//15 31//15
f 31//16 30//16 32//16
f 31//16 32//16 33//16
f 33//17 32//17 34//17
f 33//17 34//17 35//17
f 35//18 34//18 36//18
f 35//18 36//18 37//18
f 37//19 36//19 38//19
f 37//19 38//19 39//19
f 39//20 38//20 40//20
f 39//20 40//20 41//20
f 41//21 40//21 42//21
f 41//21 42//21 43//21
f 43//22 42//22 44//22
f 43//22 44//22 45//22
f 45//23 44//23 46//23
f 45//23 46//23 47//23
f 47//24 46//24 48//24
f 47//24 48//24 49//24
f 49//25 48//25 50//25
f 49//25 50//25 51//25
f 51//26 50//26 52//26
f 51//26 52//26 53//26
f 53//27 52//27 54//27
f 53//27 54//27 55//27
f 55//28 54//28 56//28
f 55//28 56//28 57//28
f 57//29 56//29 58//29
f 57//29 58//29 59//29
f 59//30 58//30 60//30
f 59//30 60//30 61//30
f 61//31 60//31 62//31
f 61//31 62//31 63//31
f 63//32 62//32 64//32
f 63//32 64//32 65//32
f 65//33 64//33 66//33
f 65//33 66//33 67//33
f 67//34 66//34 68//34
f 67//34 68//34 69//34
f 69//35 68//35 70//35
f 69//35 70//35 71//35
f 71//36 70//36 72//36
f 71//36 72//36 73//36
f 73//37 72//37 74//37
f 73//37 74//37 75//37
f 75//38 74//38 76//38
f 75//38 76//38 1//38
f 1//1 76//1 2//1
f 77//39 62//39 78//39
f 78//39 62//39 60//39
f 78//39 60//39 79//39
f 36//39 80//39 81//39
f 82//39 40//39 81//39
f 81//39 40//39 38//39
f 81//39 38//39 36//39
f 83//39 66//39 77//39
f 77//39 66//39 64//39
f 77//39 64//39 62//39
f 28//39 84//39 85//39
f 36//39 34//39 80//39
f 80//39 34//39 32//39
f 80//39 32//39 85//39
f 85//39 32//39 30//39
f 85//39 30//39 28//39
f 86//39 44//39 82//39
f 82//39 44//39 42//39
f 82//39 42//39 40//39
f 60//39 58//39 79//39
f 79//39 58//39 56//39
f 79//39 56//39 87//39
f 88//39 70//39 83//39
f 83//39 70//39 68//39
f 83//39 68//39 66//39
f 89//39 74//39 88//39
f 88//39 74//39 72//39
f 88//39 72//39 70//39
f 90//39 48//39 86//39
f 86//39 48//39 46//39
f 86//39 46//39 44//39
f 56//39 54//39 87//39
f 87//39 54//39 52//39
f 87//39 52//39 90//39
f 90//39 52//39 50//39
f 90//39 50//39 48//39
f 91//39 2//39 89//39
f 89//39 2//39 76//39
f 89//39 76//39 74//39
f 92//39 93//39 14//39
f 94//39 6//39 91//39
f 91//39 6//39 4//39
f 91//39 4//39 2//39
f 14//39 12//39 92//39
f 92//39 12//39 10//39
f 92//39 10//39 94//39
f 94//39 10//39 8//39
f 94//39 8//39 6//39
f 95//39 18//39 93//39
f 93//39 18//39 16//39
f 93//39 16//39 14//39
f 28//39 26//39 84//39
f 84//39 26//39 24//39
f 84//39 24//39 96//39
f 96//39 24//39 22//39
f 96//39 22//39 95//39
f 95//39 22//39 20//39
f 95//39 20//39 18//39
f 97//40 57//40 98//40
f 98//40 57//40 59//40
f 98//40 59//40 99//40
f 100//40 53//40 97//40
f 97//40 53//40 55//40
f 97//40 55//40 57//40
f 101//40 49//40 100//40
f 100//40 49//40 51//40
f 100//40 51//40 53//40
f 102//40 45//40 101//40
f 101//40 45//40 47//40
f 101//40 47//40 49//40
f 15//40 103//40 104//40
f 105//40 106//40 75//40
f 107//40 71//40 106//40
f 106//40 71//40 73//40
f 106//40 73//40 75//40
f 108//40 67//40 107//40
f 107//40 67//40 69//40
f 107//40 69//40 71//40
f 59//40 61//40 99//40
f 99//40 61//40 63//40
f 99//40 63//40 108//40
f 108//40 63//40 65//40
f 108//40 65//40 67//40
f 109//40 110//40 25//40
f 15//40 17//40 103//40
f 103//40 17//40 19//40
f 103//40 19//40 111//40
f 111//40 19//40 21//40
f 111//40 21//40 110//40
f 110//40 21//40 23//40
f 110//40 23//40 25//40
f 112//40 11//40 104//40
f 104//40 11//40 13//40
f 104//40 13//40 15//40
f 113//40 41//40 102//40
f 102//40 41//40 43//40
f 102//40 43//40 45//40
f 114//40 7//40 112//40
f 112//40 7//40 9//40
f 112//40 9//40 11//40
f 75//40 1//40 105//40
f 105//40 1//40 3//40
f 105//40 3//40 114//40
f 114//40 3//40 5//40
f 114//40 5//40 7//40
f 115//40 37//40 113//40
f 113//40 37//40 39//40
f 113//40 39//40 41//40
f 116//40 33//40 115//40
f 115//40 33//40 35//40
f 115//40 35//40 37//40
f 25//40 27//40 109//40
f 109//40 27//40 29//40
f 109//40 29//40 116//40
f 116//40 29//40 31//40
f 116//40 31//40 33//40
f 98//41 79//41 97//41
f 97//41 79//41 87//41
f 97//42 87//42 100//42
f 100//42 87//42 90//42
f 100//43 90//43 101//43
f 101//43 90//43 86//43
f 101//44 86//44 102//44
f 102//44 86//44 82//44
f 102//45 82//45 113//45
f 113//46 82//46 81//46
f 113//47 81//47 115//47
f 115//48 81//48 80//48
f 115//49 80//49 116//49
f 116//49 80//49 85//49
f 116//50 85//50 109//50
f 109//50 85//50 84//50
f 109//51 84//51 110//51
f 110//51 84//51 96//51
f 110//52 96//52 111//52
f 111//52 96//52 95//52
f 111//53 95//53 103//53
f 103//53 95//53 93//53
f 103//54 93//54 104//54
f 104//54 93//54 92//54
f 104//55 92//55 112//55
f 112//55 92//55 94//55
f 112//56 94//56 114//56
f 114//56 94//56 91//56
f 114//57 91//57 105//57
f 105//58 91//58 89//58
f 105//59 89//59 106//59
f 106//60 89//60 88//60
f 106//61 88//61 107//61
f 107//61 88//61 83//61
f 107//62 83//62 108//62
f 108//62 83//62 77//62
f 108//63 77//63 99//63
f 99//63 77//63 78//63
f 99//64 78//64 98//64
f 98//64 78//64 79//64
# Vertices: 116, normals: 64, texture coordinates: 0, faces: 232

